<svg width="1583" height="3389" viewBox="0 0 1583 3389" fill="none" xmlns="http://www.w3.org/2000/svg">
<path d="M-59.3799 1826.19C16.123 1826.19 77.3301 1764.98 77.3301 1689.48C77.3301 1613.98 16.123 1552.77 -59.3799 1552.77C-134.883 1552.77 -196.09 1613.98 -196.09 1689.48C-196.09 1764.98 -134.883 1826.19 -59.3799 1826.19Z" stroke="#990FA2" stroke-width="10" stroke-miterlimit="10"/>
<path d="M-133.47 2032.55C55.704 2032.55 209.06 1879.19 209.06 1690.02C209.06 1500.85 55.704 1347.49 -133.47 1347.49C-322.644 1347.49 -476 1500.85 -476 1690.02C-476 1879.19 -322.644 2032.55 -133.47 2032.55Z" stroke="#9A10A2" stroke-width="3" stroke-miterlimit="10"/>
<path d="M-2.81995 2380.85C378.908 2380.85 688.36 2071.4 688.36 1689.67C688.36 1307.94 378.908 998.49 -2.81995 998.49C-384.548 998.49 -694 1307.94 -694 1689.67C-694 2071.4 -384.548 2380.85 -2.81995 2380.85Z" stroke="#F3437D" stroke-width="10" stroke-miterlimit="10"/>
<path d="M-118.62 2637.25C402.395 2637.25 824.76 2214.88 824.76 1693.87C824.76 1172.86 402.395 750.49 -118.62 750.49C-639.634 750.49 -1062 1172.86 -1062 1693.87C-1062 2214.88 -639.634 2637.25 -118.62 2637.25Z" stroke="#FF95C3" stroke-width="3.24" stroke-miterlimit="10"/>
<path d="M-0.130005 2973.23C708.932 2973.23 1283.74 2398.42 1283.74 1689.36C1283.74 980.298 708.932 405.49 -0.130005 405.49C-709.192 405.49 -1284 980.298 -1284 1689.36C-1284 2398.42 -709.192 2973.23 -0.130005 2973.23Z" stroke="#FF7276" stroke-width="10" stroke-miterlimit="10"/>
<path d="M-121.52 3203.44C732.577 3203.44 1424.96 2511.06 1424.96 1656.96C1424.96 802.863 732.577 110.48 -121.52 110.48C-975.617 110.48 -1668 802.863 -1668 1656.96C-1668 2511.06 -975.617 3203.44 -121.52 3203.44Z" stroke="#FFAAAD" stroke-width="3.13" stroke-miterlimit="10"/>
<path d="M-100.48 2224.24C194.86 2224.24 434.28 1984.82 434.28 1689.48C434.28 1394.14 194.86 1154.72 -100.48 1154.72C-395.82 1154.72 -635.24 1394.14 -635.24 1689.48C-635.24 1984.82 -395.82 2224.24 -100.48 2224.24Z" stroke="#D9B2F8" stroke-width="1.22" stroke-miterlimit="10"/>
<path d="M-132.53 2829.95C497.334 2829.95 1007.94 2319.34 1007.94 1689.48C1007.94 1059.62 497.334 549.01 -132.53 549.01C-762.394 549.01 -1273 1059.62 -1273 1689.48C-1273 2319.34 -762.394 2829.95 -132.53 2829.95Z" stroke="#FFCAE1" stroke-width="1.1" stroke-miterlimit="10"/>
<path d="M-111.28 3388.44C824.136 3388.44 1582.44 2630.14 1582.44 1694.72C1582.44 759.304 824.136 1 -111.28 1C-1046.7 1 -1805 759.304 -1805 1694.72C-1805 2630.14 -1046.7 3388.44 -111.28 3388.44Z" stroke="#FFD5D6" stroke-width="1.02" stroke-miterlimit="10"/>
</svg>
