<svg width="62" height="62" viewBox="0 0 62 62" fill="none" xmlns="http://www.w3.org/2000/svg">
<g id="Group">
<path id="Vector" d="M38.3696 5.52605H30.7261V9.06083" stroke="white" stroke-width="2" stroke-linecap="round" stroke-linejoin="round"/>
<path id="Vector_2" d="M23.4086 56.6435H31.0521V53.2652" stroke="white" stroke-width="2" stroke-linecap="round" stroke-linejoin="round"/>
<path id="Vector_3" d="M57.3087 37.4565V30.0087H53.8522" stroke="white" stroke-width="2" stroke-linecap="round" stroke-linejoin="round"/>
<path id="Vector_4" d="M4.67835 22.8609V30.3217H8.35662" stroke="white" stroke-width="2" stroke-linecap="round" stroke-linejoin="round"/>
<path id="Vector_5" d="M4.67825 22.8609C6.7097 22.8609 8.35652 21.2549 8.35652 19.2739C8.35652 17.2929 6.7097 15.687 4.67825 15.687C2.6468 15.687 1 17.2929 1 19.2739C1 21.2549 2.6468 22.8609 4.67825 22.8609Z" stroke="white" stroke-width="2" stroke-linecap="round" stroke-linejoin="round"/>
<path id="Vector_6" d="M61.0001 37.7044H53.6306V44.8913H61.0001V37.7044Z" stroke="white" stroke-width="2" stroke-linecap="round" stroke-linejoin="round"/>
<path id="Vector_7" d="M45.739 5.52609L42.0477 7.79565L38.3694 10.0652V5.52609V1L42.0477 3.25652L45.739 5.52609Z" stroke="white" stroke-width="2" stroke-linecap="round" stroke-linejoin="round"/>
<path id="Vector_8" d="M23.0826 58.9261V54.7783L19.3913 52.7044L15.7131 54.7783V58.9261L19.3913 61L23.0826 58.9261Z" stroke="white" stroke-width="2" stroke-linecap="round" stroke-linejoin="round"/>
<path id="Vector_9" d="M37.7694 48.6087C33.3998 50.187 28.6912 50.187 24.3216 48.6087" stroke="white" stroke-width="2" stroke-linecap="round" stroke-linejoin="round"/>
<path id="Vector_10" d="M48.687 23.5652C50.5262 27.6348 50.774 32.3695 49.3914 36.6608" stroke="white" stroke-width="2" stroke-linecap="round" stroke-linejoin="round"/>
<path id="Vector_11" d="M24.0086 13.587C28.3651 11.9304 33.0738 11.8522 37.4694 13.3522" stroke="white" stroke-width="2" stroke-linecap="round" stroke-linejoin="round"/>
<path id="Vector_12" d="M12.9218 37.287C11.3827 33.0739 11.4609 28.3261 13.1566 24.1783" stroke="white" stroke-width="2" stroke-linecap="round" stroke-linejoin="round"/>
<path id="Vector_13" d="M16.313 29.0044V33.0087L19.7826 33.5174C20.0695 34.7696 20.5782 35.9435 21.2434 36.987L19.1565 39.7392L22.0521 42.5696L24.8695 40.5348C25.9782 41.2131 27.1782 41.6957 28.4173 41.9696L28.926 45.3609H33.0347L33.5434 41.9696C34.7826 41.6957 35.9826 41.2131 37.0913 40.5348L39.8695 42.5696L42.7652 39.7392L40.6782 37C41.3565 35.9565 41.8521 34.7826 42.1391 33.5305L45.6087 33.0218V29.0174L42.1782 28.5087C41.8913 27.2565 41.3956 26.0826 40.7173 25.0392L42.8043 22.287L39.8565 19.4565L37.0391 21.4913C35.9304 20.8131 34.7304 20.3305 33.4913 20.0565L33.0086 16.6783H28.9L28.3913 20.0696C27.1521 20.3435 25.9521 20.8261 24.8434 21.5044L22.026 19.4565L19.1304 22.287L21.2565 25.0392C20.5782 26.0826 20.0826 27.2565 19.7956 28.5087L16.2869 29.0044H16.313Z" stroke="white" stroke-width="2" stroke-linecap="round" stroke-linejoin="round"/>
<path id="Vector_14" d="M31.0001 37.8609C34.8829 37.8609 38.0306 34.7892 38.0306 31C38.0306 27.2108 34.8829 24.1391 31.0001 24.1391C27.1173 24.1391 23.9697 27.2108 23.9697 31C23.9697 34.7892 27.1173 37.8609 31.0001 37.8609Z" stroke="white" stroke-width="2" stroke-linecap="round" stroke-linejoin="round"/>
</g>
</svg>
