<svg width="259" height="72" viewBox="0 0 259 72" fill="none" xmlns="http://www.w3.org/2000/svg">
<path d="M201.411 15.5913C195.268 15.5913 189.868 18.7998 186.774 23.6182C183.679 18.7998 178.278 15.5913 172.136 15.5913C162.544 15.5913 154.746 23.3898 154.746 32.9809V52.6542H160.672V32.9809C160.672 26.6668 165.81 21.5173 172.136 21.5173C178.461 21.5173 183.599 26.6554 183.599 32.9809V52.6542H189.959V32.9809C189.959 26.6668 195.097 21.5173 201.423 21.5173C207.748 21.5173 212.886 26.6554 212.886 32.9809V52.6542H218.812V32.9809C218.812 23.3898 211.014 15.5913 201.423 15.5913H201.411Z" fill="white"/>
<path d="M240.975 15.5913C231.384 15.5913 223.585 23.3898 223.585 32.9809V52.6542H229.511V39.4435H252.427V52.6542H258.353V32.9809C258.353 23.3898 250.555 15.5913 240.963 15.5913H240.975ZM229.511 33.5176V32.9809C229.511 26.6668 234.649 21.5173 240.975 21.5173C247.3 21.5173 252.439 26.6554 252.439 32.9809V33.5176H229.523H229.511Z" fill="white"/>
<path d="M131.328 15.3516C120.161 15.3516 111.072 24.4403 111.072 35.6071C111.072 46.7739 120.161 55.8627 131.328 55.8627C142.494 55.8627 151.583 46.7739 151.583 35.6071C151.583 24.4403 142.494 15.3516 131.328 15.3516ZM131.328 49.7312C123.54 49.7312 117.203 43.3942 117.203 35.6071C117.203 27.82 123.54 21.483 131.328 21.483C139.115 21.483 145.452 27.82 145.452 35.6071C145.452 43.3942 139.115 49.7312 131.328 49.7312Z" fill="white"/>
<path d="M78.3823 54.7549V28.151L96.8224 54.7549H104.29L97.2905 44.65C102.863 42.4577 106.825 37.0456 106.825 30.6972C106.825 22.4305 100.099 15.7053 91.8327 15.7053H72.2737V18.3315V54.7435H78.4052L78.3823 54.7549ZM91.8213 21.8482C96.7082 21.8482 100.682 25.8217 100.682 30.7086C100.682 34.9789 97.6559 38.5414 93.6254 39.3749L81.4766 21.8482H91.8213Z" fill="white"/>
<path d="M11.6816 71.785C-4.14772 55.1388 -3.89718 28.8058 12.4787 12.4877C19.0837 5.90166 27.3286 1.92965 35.9265 0.549065L39.5251 7.45199L39.9351 0.0964139C48.5786 -0.480716 57.3587 1.53358 65 6.12799L54.022 23.0458C50.6398 21.1447 46.8134 20.1262 42.8276 20.1262H42.7935C36.7123 20.1262 30.9955 22.5026 26.6909 26.7802C20.8489 32.5967 18.8674 40.8124 20.735 48.2585C14.4488 50.9178 10.0189 57.0965 10.0075 64.3276C10.0075 66.9982 10.6111 69.5217 11.6816 71.7963V71.785ZM55.9693 58.9863C59.4768 62.4604 61.4128 67.0774 61.4356 72H52.9971C52.9743 69.3294 51.9152 66.8171 50.0134 64.9273C48.0889 63.0262 45.538 61.9738 42.8276 61.9738C42.8276 61.9738 42.8276 61.9738 42.8162 61.9738C37.2361 61.9738 32.7151 66.4663 32.6582 72H24.2197C24.2425 66.1495 27.0211 60.9327 31.3258 57.5604C30.7564 57.1191 30.2098 56.6438 29.6859 56.1346C22.4204 48.9374 22.3976 37.2025 29.6518 29.9827C33.1593 26.486 37.8283 24.5509 42.8049 24.5509H42.839C47.8042 24.5509 52.4618 26.4633 55.9807 29.9487C59.4996 33.4341 61.447 38.0738 61.447 43.019C61.447 47.9642 59.5224 52.6039 56.0149 56.1006C55.4797 56.6325 54.9216 57.1078 54.3409 57.5604C54.9103 58.0018 55.4569 58.4771 55.9693 58.9976V58.9863ZM35.6418 50.1935C37.5664 52.0947 40.1173 53.1471 42.8276 53.1471C42.8276 53.1471 42.8276 53.1471 42.839 53.1471C45.5607 53.1471 48.1116 52.0834 50.0248 50.1709C51.9494 48.2585 52.9971 45.7123 52.9971 43.019C52.9971 40.3144 51.9266 37.7796 50.002 35.8785C48.0775 33.9773 45.5266 32.9249 42.8162 32.9249H42.8049C40.0831 32.9249 37.5322 33.9886 35.6191 35.9011C31.656 39.8505 31.6674 46.2668 35.6418 50.2049V50.1935Z" fill="url(#paint0_linear_406_212)"/>
<defs>
<linearGradient id="paint0_linear_406_212" x1="5.29291" y1="72.9506" x2="68.3782" y2="10.9804" gradientUnits="userSpaceOnUse">
<stop offset="0.17" stop-color="#FF5053"/>
<stop offset="1" stop-color="#990FA2"/>
</linearGradient>
</defs>
</svg>
