<svg width="459" height="692" viewBox="0 0 459 692" fill="none" xmlns="http://www.w3.org/2000/svg">
<path opacity="0.14" d="M112.323 689.933C-39.8819 529.945 -37.4729 276.856 119.988 120.021C183.497 56.7215 262.775 18.5461 345.447 5.27712L380.049 71.6219L383.991 0.926645C467.101 -4.62021 551.526 14.7394 625 58.8968L519.442 221.496C486.921 203.224 450.129 193.435 411.804 193.435H411.476C353.003 193.435 298.034 216.275 256.643 257.387C200.47 313.291 181.417 392.252 199.375 463.817C138.931 489.376 96.3357 548.76 96.2262 618.259C96.2262 643.927 102.03 668.181 112.323 690.042V689.933ZM538.167 566.924C571.893 600.314 590.508 644.689 590.727 692H509.587C509.368 666.332 499.185 642.187 480.898 624.024C462.393 605.752 437.865 595.637 411.804 595.637C411.804 595.637 411.804 595.637 411.695 595.637C358.04 595.637 314.568 638.815 314.021 692H232.882C233.101 635.77 259.819 585.631 301.21 553.22C295.735 548.978 290.479 544.41 285.442 539.516C215.581 470.343 215.362 357.557 285.113 288.167C318.839 254.559 363.734 235.961 411.585 235.961H411.914C459.655 235.961 504.441 254.342 538.276 287.841C572.112 321.339 590.836 365.932 590.836 413.461C590.836 460.99 572.331 505.582 538.605 539.189C533.458 544.301 528.093 548.869 522.508 553.22C527.983 557.461 533.239 562.029 538.167 567.033V566.924ZM342.71 482.416C361.215 500.688 385.743 510.803 411.804 510.803C411.804 510.803 411.804 510.803 411.914 510.803C438.084 510.803 462.612 500.579 481.008 482.198C499.513 463.817 509.587 439.346 509.587 413.461C509.587 387.467 499.294 363.104 480.789 344.832C462.283 326.56 437.756 316.445 411.695 316.445H411.585C385.415 316.445 360.887 326.669 342.491 345.049C304.385 383.007 304.494 444.675 342.71 482.524V482.416Z" fill="url(#paint0_linear_457_335)" fill-opacity="0.42"/>
<defs>
<linearGradient id="paint0_linear_457_335" x1="50.8933" y1="701.136" x2="657.217" y2="105.265" gradientUnits="userSpaceOnUse">
<stop offset="0.17" stop-color="#FF5053"/>
<stop offset="1" stop-color="#990FA2"/>
</linearGradient>
</defs>
</svg>
