<svg width="43" height="74" viewBox="0 0 43 74" fill="none" xmlns="http://www.w3.org/2000/svg">
<g id="Group 33">
<path id="Vector" d="M39.6513 59.3513C39.6513 61.6182 39.5837 63.7185 39.6874 65.8121C39.7235 66.5437 40.1564 67.2686 40.4653 67.9732C41.1463 69.5265 41.8565 71.0662 42.5645 72.606C43.0268 73.6123 42.8306 73.9702 41.7009 73.9859C39.746 74.013 37.7911 73.9927 35.8362 73.9927C32.905 73.9927 29.9715 73.9972 27.0403 73.9904C25.9016 73.9882 25.6693 73.6078 26.1361 72.5407C26.9636 70.6498 27.8024 68.7656 28.6119 66.8679C28.7539 66.537 28.8486 66.161 28.8531 65.8053C28.8757 63.9279 28.8531 62.0505 28.8712 60.1753C28.8757 59.5967 28.8035 59.1803 27.9174 59.4594C27.9174 60.4409 27.9264 61.4787 27.9174 62.5164C27.8881 65.1097 28.2759 64.7248 25.6243 64.7541C24.4969 64.7676 23.3717 64.7541 22.0549 64.7541C22.0549 65.7851 22.0549 66.7801 22.0549 67.7751C22.0549 68.2636 22.1338 68.8174 21.3807 68.7993C20.6209 68.7813 20.7561 68.2028 20.7494 67.7323C20.7404 66.7981 20.7471 65.8616 20.7471 64.7541C19.1688 64.7541 17.6423 64.6955 16.1225 64.7743C15.1034 64.8283 14.8102 64.4569 14.8644 63.4844C14.9365 62.1765 14.8824 60.8619 14.8824 59.5044C14.3345 59.2793 13.9422 59.1848 13.9309 59.9884C13.9038 61.9582 13.649 63.9549 13.8835 65.8909C14.0459 67.2213 14.8711 68.4707 15.4078 69.7538C15.8317 70.7713 16.2556 71.7911 16.6998 72.8018C17.0538 73.6055 16.8599 73.995 15.9354 73.9927C10.9365 73.9837 5.93763 73.9837 0.938744 73.9927C0.0323158 73.9927 -0.199928 73.6348 0.165349 72.8131C1.00639 70.9289 1.86546 69.0515 2.64111 67.1403C2.92522 66.4402 3.10335 65.6568 3.13266 64.9026C3.20256 63.1085 3.15521 61.3098 3.15521 59.5134C2.99963 59.4459 2.90267 59.3626 2.80797 59.3671C0.20368 59.4842 0.711009 58.8336 0.670423 57.0507C0.616308 54.6645 0.616308 52.2918 1.8091 50.1105C1.82713 50.0789 1.8339 50.0339 1.8587 50.0114C3.46862 48.4851 3.15746 46.5041 3.15521 44.5929C3.15295 39.0754 3.25442 33.5534 3.11011 28.0404C3.04021 25.402 3.55431 23.0001 4.60955 20.6229C5.65352 18.2705 6.53966 15.8482 7.54304 13.4778C7.72568 13.0433 8.13831 12.7057 8.44496 12.3252C8.7719 12.7372 9.20934 13.1019 9.4055 13.5678C10.3751 15.855 11.2815 18.1692 12.3999 20.445C12.3999 18.8558 12.4359 17.2665 12.3931 15.6794C12.2736 11.2244 13.9399 7.45152 16.8351 4.18063C18.0143 2.84796 19.3424 1.6481 20.6051 0.391973C21.0538 -0.0537506 21.5476 -0.155051 22.0662 0.274915C25.7934 3.35671 28.8148 6.93601 29.9873 11.7647C30.2285 12.7619 30.3435 13.8065 30.3796 14.833C30.4428 16.6271 30.3977 18.4235 30.6367 20.2965C31.2477 18.795 31.8655 17.2935 32.4698 15.7875C32.8125 14.9343 33.0921 14.0518 33.4912 13.2279C33.6649 12.8677 34.073 12.6201 34.3729 12.323C34.6254 12.6134 34.9749 12.8632 35.1124 13.2009C36.4157 16.3637 37.6243 19.5649 38.9839 22.7029C39.5544 24.0176 39.6558 25.3255 39.6513 26.7099C39.6288 33.4296 39.631 40.1492 39.6649 46.8688C39.6649 47.3055 39.9106 47.8301 40.2105 48.1632C41.8543 49.9979 42.763 52.1072 42.7968 54.5744C42.8103 55.6257 42.8013 56.677 42.7968 57.7283C42.7968 59.3108 42.7562 59.3468 41.1147 59.3491C40.6705 59.3491 40.2263 59.3491 39.6423 59.3491L39.6513 59.3513ZM26.6141 63.4101V61.9537C26.6141 52.7218 26.56 43.4876 26.6389 34.2557C26.6727 30.2892 24.6096 27.4866 21.967 24.9406C21.7618 24.7425 21.0019 24.7987 20.7516 25.0216C20.003 25.6834 19.3356 26.4511 18.7201 27.2412C17.0853 29.3303 16.1383 31.6174 16.1631 34.375C16.2466 43.6069 16.1947 52.8388 16.1947 62.073C16.1947 62.5074 16.1947 62.9419 16.1947 63.3696H20.7516C20.7516 62.244 20.6998 61.195 20.7809 60.155C20.808 59.8241 21.1891 59.5202 21.4078 59.205C21.6242 59.5224 22.003 59.8286 22.0279 60.1618C22.109 61.2288 22.0572 62.3048 22.0572 63.4101H26.6141ZM13.7122 41.5832C14.6276 41.4459 14.9162 41.0609 14.9027 40.273C14.8553 37.9093 14.8463 35.5434 14.9072 33.1797C14.9298 32.2725 15.0605 31.327 15.3582 30.4738C16.4044 27.4933 18.436 25.2084 20.8148 23.2072C21.3379 22.7682 21.8339 23.0046 22.2646 23.4346C23.1259 24.2967 24.0662 25.0959 24.8373 26.0301C26.7359 28.3285 28.0887 30.8475 27.9422 33.9856C27.843 36.1197 27.8926 38.265 27.9512 40.4013C27.9625 40.7908 28.33 41.1712 28.5329 41.5562C28.6344 41.5021 28.7359 41.4481 28.8351 41.3918C28.8464 41.2815 28.8666 41.169 28.8666 41.0587C28.8666 31.7502 28.8712 22.4441 28.8666 13.1356C28.8666 12.843 28.7922 12.5526 28.7449 12.2599C28.2962 9.47079 26.7945 7.18589 25.0808 5.06082C23.9963 3.71689 22.6524 2.58458 21.3492 1.27892C19.843 2.90649 18.4923 4.30219 17.2139 5.76317C15.0199 8.27093 13.8925 11.2604 13.7843 14.5448C13.6851 17.5343 13.9354 20.5328 13.9264 23.5291C13.9151 27.1512 13.773 30.771 13.7212 34.3931C13.6874 36.7545 13.7144 39.1159 13.7144 41.5809L13.7122 41.5832ZM28.0008 42.6907V57.7418H41.595C41.48 56.0624 41.507 54.4484 41.2274 52.8906C40.8915 51.0334 40.0076 49.3901 38.2894 48.3951C36.0888 47.1187 33.861 45.8873 31.6378 44.6515C30.454 43.9941 29.2522 43.3638 28.0008 42.6907ZM14.8508 42.7605C14.4946 42.9046 14.1744 42.9924 13.8971 43.1522C11.7325 44.4128 9.57461 45.687 7.41677 46.9611C6.40211 47.5599 5.21609 47.9899 4.41113 48.7958C1.92183 51.2946 1.77076 54.4799 2.06614 57.7395H14.8508V42.7605ZM8.46751 14.8195C7.09208 18.2097 5.45285 21.2847 4.64337 24.5646C4.0436 26.9913 4.52612 29.6837 4.52612 32.304H12.4066C12.4066 30.3388 12.4089 28.4343 12.4066 26.5321C12.4066 25.8207 12.578 25.0351 12.3412 24.4093C11.1507 21.287 9.8497 18.2052 8.46976 14.8195H8.46751ZM38.3436 32.3288C38.3436 30.0079 38.3774 27.8017 38.3233 25.5979C38.3075 24.9203 38.1203 24.2202 37.8813 23.5764C37.3221 22.0614 36.6885 20.5734 36.0775 19.0764C35.5273 17.7324 34.9659 16.393 34.312 14.815C33.3266 17.2687 32.5307 19.4793 31.5544 21.6044C30.7314 23.394 30.2601 25.1859 30.3819 27.1714C30.4856 28.8733 30.4044 30.5864 30.4044 32.3288H38.3436ZM4.57348 33.9428V47.0264C7.08306 45.6059 9.48442 44.253 11.8745 42.8776C12.0955 42.7515 12.3773 42.4746 12.3796 42.2653C12.4134 39.5054 12.4021 36.7455 12.4021 33.9428H4.57122H4.57348ZM30.4067 33.9451C30.4067 36.6937 30.3999 39.3501 30.4202 42.0064C30.4202 42.2315 30.5623 42.5624 30.7381 42.6615C33.2116 44.0369 35.7054 45.3808 38.2737 46.7765V33.9451H30.4067ZM15.2161 72.6398C14.4224 70.8074 13.7257 69.1505 12.9771 67.5207C12.8711 67.2888 12.5013 67.0367 12.2488 67.0322C9.54981 66.9962 6.85082 67.0097 4.15859 67.0097C3.3401 68.8984 2.54641 70.7308 1.7189 72.6398H15.2184H15.2161ZM41.0944 72.642C40.6953 71.7101 40.3684 70.9357 40.0301 70.1658C39.6739 69.3576 39.3763 68.5089 38.9118 67.7661C38.6908 67.4104 38.1542 67.066 37.7438 67.0435C36.2083 66.9579 34.6412 67.1853 33.1305 66.9692C30.7088 66.6225 29.2928 67.4464 28.7517 69.8551C28.5938 70.562 28.1767 71.2081 27.8926 71.8879C27.8024 72.1063 27.7595 72.3426 27.6761 72.6443H41.0944V72.642ZM12.357 59.4369H4.55093V65.3889H12.3548V59.4369H12.357ZM38.2624 65.4361V59.4301H30.4856V65.4361H38.2624Z" fill="white"/>
</g>
</svg>
