<svg width="210" height="24" viewBox="0 0 210 24" fill="none" xmlns="http://www.w3.org/2000/svg">
<path d="M0.93934 10.9393C0.353553 11.5251 0.353553 12.4749 0.93934 13.0607L10.4853 22.6066C11.0711 23.1924 12.0208 23.1924 12.6066 22.6066C13.1924 22.0208 13.1924 21.0711 12.6066 20.4853L4.12132 12L12.6066 3.51472C13.1924 2.92893 13.1924 1.97919 12.6066 1.3934C12.0208 0.807611 11.0711 0.807611 10.4853 1.3934L0.93934 10.9393ZM209.061 13.0607C209.646 12.4749 209.646 11.5251 209.061 10.9393L199.515 1.3934C198.929 0.807611 197.979 0.807611 197.393 1.3934C196.808 1.97919 196.808 2.92893 197.393 3.51472L205.879 12L197.393 20.4853C196.808 21.0711 196.808 22.0208 197.393 22.6066C197.979 23.1924 198.929 23.1924 199.515 22.6066L209.061 13.0607ZM2 13.5H208V10.5H2V13.5Z" fill="url(#paint0_linear_664_1635)"/>
<defs>
<linearGradient id="paint0_linear_664_1635" x1="18.7744" y1="13.0132" x2="18.7823" y2="11.2606" gradientUnits="userSpaceOnUse">
<stop offset="0.17" stop-color="#FF5053"/>
<stop offset="1" stop-color="#990FA2"/>
</linearGradient>
</defs>
</svg>
