<svg width="17" height="16" viewBox="0 0 17 16" fill="none" xmlns="http://www.w3.org/2000/svg">
<path fill-rule="evenodd" clip-rule="evenodd" d="M3.79008 15.9353V5.18528H0.220078V15.9353H3.79008ZM2.00008 3.71528C2.25513 3.73402 2.51131 3.69996 2.75261 3.61523C2.99391 3.5305 3.21514 3.39692 3.40248 3.22283C3.58983 3.04874 3.73926 2.83789 3.84145 2.60345C3.94363 2.36901 3.99637 2.11602 3.99637 1.86028C3.99637 1.60454 3.94363 1.35154 3.84145 1.1171C3.73926 0.882659 3.58983 0.67181 3.40248 0.497724C3.21514 0.323639 2.99391 0.190058 2.75261 0.105328C2.51131 0.0205973 2.25513 -0.0134623 2.00008 0.00527702C1.74431 -0.0140305 1.4873 0.0197727 1.24522 0.104562C1.00314 0.189352 0.781215 0.323295 0.593387 0.497975C0.40556 0.672655 0.255891 0.884296 0.153787 1.1196C0.051683 1.3549 -0.000649372 1.60878 7.83257e-05 1.86528C-0.00228876 2.12182 0.0490203 2.37603 0.150711 2.61157C0.252401 2.84711 0.402225 3.05878 0.590563 3.233C0.778901 3.40721 1.00159 3.54011 1.24433 3.62317C1.48707 3.70622 1.7445 3.7376 2.00008 3.71528Z" fill="white"/>
<path fill-rule="evenodd" clip-rule="evenodd" d="M5.77002 15.9355H9.34002V9.93546C9.32347 9.63715 9.36421 9.33844 9.46002 9.05546C9.59269 8.67582 9.84005 8.3468 10.1679 8.1139C10.4957 7.881 10.8879 7.75575 11.29 7.75546C12.58 7.75546 13.1 8.75546 13.1 10.1855V15.9355H16.65V9.76546C16.65 6.46546 14.89 4.93546 12.54 4.93546C11.8843 4.90928 11.234 5.06437 10.6606 5.38369C10.0873 5.703 9.61304 6.17418 9.29002 6.74546V5.18546H5.77002C5.77002 6.18546 5.77002 15.9355 5.77002 15.9355Z" fill="white"/>
</svg>
