<svg width="16" height="16" viewBox="0 0 16 16" fill="none" xmlns="http://www.w3.org/2000/svg">
<g id="Instagram-icon-black-01 2" clip-path="url(#clip0_518_734)">
<g id="Clip path group">
<mask id="mask0_518_734" style="mask-type:luminance" maskUnits="userSpaceOnUse" x="0" y="0" width="16" height="16">
<g id="clip-path">
<path id="Vector" d="M15.1298 0.870605H0.871094V15.1294H15.1298V0.870605Z" fill="white"/>
</g>
</mask>
<g mask="url(#mask0_518_734)">
<g id="Group">
<path id="Vector_2" d="M8.00047 2.15623C9.90422 2.15623 10.1295 2.16373 10.8814 2.19779C11.5764 2.22904 11.9539 2.34592 12.2052 2.44342C12.5149 2.55766 12.795 2.73995 13.0248 2.97686C13.2617 3.20673 13.444 3.48684 13.5583 3.79654C13.6558 4.04654 13.772 4.42529 13.8036 5.12029C13.838 5.87092 13.8442 6.09623 13.8442 7.99998C13.8442 9.90373 13.837 10.129 13.8027 10.8809C13.7714 11.5759 13.6548 11.9534 13.5573 12.2047C13.4387 12.5121 13.257 12.7913 13.0239 13.0244C12.7909 13.2574 12.5117 13.4391 12.2042 13.5578C11.9542 13.6553 11.5755 13.7715 10.8805 13.8031C10.1295 13.8375 9.90422 13.8437 8.00047 13.8437C6.09672 13.8437 5.87141 13.8365 5.11953 13.8022C4.42453 13.7709 4.04703 13.6544 3.79578 13.5569C3.48614 13.4425 3.20605 13.2602 2.97609 13.0234C2.73929 12.7935 2.55701 12.5134 2.44266 12.2037C2.34516 11.9537 2.22891 11.575 2.19734 10.88C2.16297 10.129 2.15672 9.90373 2.15672 7.99998C2.15672 6.09623 2.16391 5.87092 2.19828 5.11904C2.22953 4.42404 2.34609 4.04654 2.44359 3.79529C2.55768 3.48574 2.73963 3.20566 2.97609 2.97561C3.20597 2.7387 3.48608 2.55641 3.79578 2.44217C4.04578 2.34467 4.42453 2.22842 5.11953 2.19654C5.87141 2.16248 6.09703 2.15623 8.00047 2.15623ZM8.00047 0.871855C6.06297 0.871855 5.82141 0.87998 5.06109 0.914668C4.30078 0.949355 3.78391 1.07092 3.33047 1.24623C2.85491 1.42493 2.42399 1.70507 2.06766 2.06717C1.70504 2.42332 1.42446 2.85427 1.24547 3.32998C1.06922 3.78342 0.948594 4.30154 0.913906 5.06061C0.879219 5.81967 0.871094 6.06248 0.871094 7.99998C0.871094 9.93748 0.879219 10.179 0.913906 10.9394C0.948594 11.6997 1.07016 12.2165 1.24547 12.67C1.42856 13.1436 1.70861 13.5737 2.06766 13.9328C2.42672 14.2918 2.85685 14.5719 3.33047 14.755C3.78391 14.9312 4.30234 15.0519 5.06109 15.0865C5.81984 15.1212 6.06422 15.1294 8.00047 15.1294C9.93672 15.1294 10.1795 15.1212 10.9398 15.0865C11.7002 15.0519 12.217 14.9303 12.6705 14.755C13.1441 14.5719 13.5742 14.2918 13.9333 13.9328C14.2923 13.5737 14.5724 13.1436 14.7555 12.67C14.9317 12.2165 15.0523 11.6981 15.087 10.9394C15.1217 10.1806 15.1298 9.93623 15.1298 7.99998C15.1298 6.06373 15.1217 5.82092 15.087 5.06061C15.0523 4.30029 14.9308 3.78342 14.7555 3.32998C14.5724 2.85636 14.2923 2.42623 13.9333 2.06718C13.5742 1.70812 13.1441 1.42807 12.6705 1.24498C12.217 1.06873 11.6989 0.948105 10.9398 0.913418C10.1808 0.87873 9.93797 0.870605 8.00047 0.870605" fill="#FB4E56"/>
<path id="Vector_3" d="M8.00078 4.33911C7.27672 4.33911 6.56891 4.55382 5.96688 4.95609C5.36484 5.35836 4.89561 5.93012 4.61852 6.59907C4.34143 7.26802 4.26893 8.00411 4.41019 8.71426C4.55145 9.42442 4.90012 10.0767 5.41211 10.5887C5.9241 11.1007 6.57642 11.4494 7.28657 11.5906C7.99672 11.7319 8.73281 11.6594 9.40176 11.3823C10.0707 11.1052 10.6425 10.636 11.0447 10.034C11.447 9.43192 11.6617 8.72411 11.6617 8.00005C11.6617 7.02911 11.276 6.09793 10.5895 5.41138C9.9029 4.72482 8.97172 4.33911 8.00078 4.33911ZM8.00078 10.3766C7.53074 10.3766 7.07126 10.2372 6.68044 9.97609C6.28961 9.71495 5.985 9.34378 5.80513 8.90952C5.62525 8.47526 5.57819 7.99741 5.66989 7.5364C5.76159 7.0754 5.98793 6.65193 6.3203 6.31957C6.65267 5.9872 7.07613 5.76085 7.53714 5.66915C7.99815 5.57745 8.476 5.62452 8.91025 5.80439C9.34452 5.98427 9.71568 6.28888 9.97682 6.6797C10.238 7.07053 10.3773 7.53001 10.3773 8.00005C10.3773 8.31214 10.3159 8.62118 10.1964 8.90952C10.077 9.19786 9.90195 9.45985 9.68127 9.68053C9.46058 9.90122 9.19859 10.0763 8.91025 10.1957C8.62192 10.3151 8.31288 10.3766 8.00078 10.3766Z" fill="#FB4E56"/>
<path id="Vector_4" d="M12.6624 4.19425C12.6624 4.36347 12.6122 4.5289 12.5182 4.66961C12.4242 4.81031 12.2906 4.91998 12.1342 4.98474C11.9779 5.0495 11.8058 5.06645 11.6399 5.03343C11.4739 5.00042 11.3214 4.91893 11.2018 4.79927C11.0821 4.67961 11.0006 4.52715 10.9676 4.36117C10.9346 4.1952 10.9515 4.02316 11.0163 3.86681C11.0811 3.71047 11.1907 3.57684 11.3314 3.48282C11.4721 3.3888 11.6376 3.33862 11.8068 3.33862C11.9192 3.33858 12.0305 3.36069 12.1343 3.40367C12.2381 3.44665 12.3324 3.50968 12.4119 3.58914C12.4914 3.6686 12.5544 3.76294 12.5974 3.86677C12.6404 3.97059 12.6625 4.08187 12.6624 4.19425Z" fill="#FB4E56"/>
</g>
</g>
</g>
</g>
<defs>
<clipPath id="clip0_518_734">
<rect width="16" height="16" fill="white"/>
</clipPath>
</defs>
</svg>
