<svg width="18" height="18" viewBox="0 0 18 18" fill="none" xmlns="http://www.w3.org/2000/svg">
<g id="icons-03 1">
<path id="Vector" fill-rule="evenodd" clip-rule="evenodd" d="M5.16941 15.0374V5.77902H2.1638V15.0374H5.16941ZM3.6624 4.51299C3.87713 4.52913 4.09281 4.4998 4.29596 4.42682C4.49911 4.35385 4.68537 4.23881 4.8431 4.08888C5.00082 3.93895 5.12663 3.75735 5.21266 3.55544C5.29869 3.35353 5.34309 3.13564 5.34309 2.91539C5.34309 2.69513 5.29869 2.47724 5.21266 2.27533C5.12663 2.07342 5.00082 1.89182 4.8431 1.74189C4.68537 1.59196 4.49911 1.47692 4.29596 1.40395C4.09281 1.33097 3.87713 1.30164 3.6624 1.31778C3.44706 1.30115 3.23069 1.33026 3.02688 1.40329C2.82307 1.47631 2.63623 1.59167 2.47809 1.74211C2.31996 1.89255 2.19395 2.07483 2.10799 2.27748C2.02203 2.48013 1.97797 2.69878 1.97858 2.91969C1.97659 3.14064 2.01979 3.35957 2.1054 3.56243C2.19101 3.76529 2.31715 3.94759 2.47572 4.09763C2.63428 4.24767 2.82176 4.36213 3.02613 4.43366C3.23049 4.50519 3.44722 4.53222 3.6624 4.51299Z" fill="#FB4E56"/>
<path id="Vector_2" fill-rule="evenodd" clip-rule="evenodd" d="M6.83594 15.0374H9.84155V9.86995C9.82762 9.61303 9.86192 9.35577 9.94258 9.11205C10.0543 8.78509 10.2625 8.50172 10.5386 8.30114C10.8146 8.10056 11.1447 7.99268 11.4833 7.99243C12.5693 7.99243 13.0071 8.85368 13.0071 10.0853V15.0374H15.9959V9.72353C15.9959 6.88143 14.5141 5.56373 12.5357 5.56373C11.9836 5.54118 11.4361 5.67475 10.9534 5.94976C10.4707 6.22477 10.0714 6.63057 9.79946 7.12258V5.77904H6.83594C6.83594 6.64028 6.83594 15.0374 6.83594 15.0374Z" fill="#FB4E56"/>
</g>
</svg>
