<svg width="27" height="19" viewBox="0 0 27 19" fill="none" xmlns="http://www.w3.org/2000/svg">
<g id="shutterstock_1584171832 [Converted]-03 1">
<path id="Vector" d="M21.6939 16.6144H6.0063C5.37127 16.6135 4.7625 16.359 4.31352 15.9067C3.86455 15.4544 3.61202 14.8412 3.61133 14.2017V5.14266C3.61202 4.5031 3.86455 3.88993 4.31352 3.43764C4.7625 2.98534 5.37127 2.73085 6.0063 2.72998H21.6939C22.329 2.73085 22.9377 2.98534 23.3867 3.43764C23.8357 3.88993 24.0882 4.5031 24.0889 5.14266V14.201C24.0884 14.8407 23.8359 15.454 23.3869 15.9065C22.9379 16.3589 22.3291 16.6135 21.6939 16.6144ZM6.0063 3.85555C5.66746 3.85589 5.34259 3.99161 5.10299 4.23292C4.86339 4.47422 4.72863 4.8014 4.72829 5.14266V14.201C4.72863 14.5423 4.86339 14.8695 5.10299 15.1108C5.34259 15.3521 5.66746 15.4878 6.0063 15.4881H21.6939C22.0328 15.4878 22.3576 15.3521 22.5972 15.1108C22.8368 14.8695 22.9716 14.5423 22.9719 14.201V5.14266C22.9716 4.8014 22.8368 4.47422 22.5972 4.23292C22.3576 3.99161 22.0328 3.85589 21.6939 3.85555H6.0063Z" fill="#FB4E56"/>
<path id="Vector_2" d="M13.8508 12.1856C13.2617 12.1881 12.6933 11.9667 12.2591 11.5657L4.33804 4.21277C4.22918 4.11167 4.16465 3.97115 4.15866 3.82214C4.15267 3.67312 4.2057 3.52781 4.30609 3.41818C4.40648 3.30854 4.546 3.24356 4.69396 3.23752C4.84192 3.23149 4.9862 3.2849 5.09507 3.386L13.0188 10.7409C13.2463 10.95 13.5431 11.0658 13.8511 11.0658C14.1591 11.0658 14.4559 10.95 14.6834 10.7409L22.6071 3.386C22.716 3.2849 22.8603 3.23149 23.0082 3.23752C23.1562 3.24356 23.2957 3.30854 23.3961 3.41818C23.4965 3.52781 23.5495 3.67312 23.5435 3.82214C23.5375 3.97115 23.473 4.11167 23.3641 4.21277L15.4405 11.5677C15.0064 11.9674 14.4389 12.188 13.8508 12.1856Z" fill="#FB4E56"/>
<path id="Vector_3" d="M22.9365 16.1506C22.8127 16.1507 22.6925 16.1091 22.5949 16.0324L15.7184 10.6686C15.6013 10.5772 15.525 10.4428 15.5064 10.2948C15.4878 10.1469 15.5282 9.99749 15.6189 9.87958C15.7096 9.76167 15.8431 9.68488 15.9901 9.6661C16.137 9.64732 16.2853 9.68809 16.4024 9.77944L23.2776 15.1433C23.3696 15.2152 23.437 15.3143 23.4703 15.4267C23.5037 15.539 23.5013 15.6591 23.4636 15.7701C23.4259 15.8811 23.3547 15.9774 23.26 16.0456C23.1652 16.1139 23.0517 16.1506 22.9352 16.1506H22.9365Z" fill="#FB4E56"/>
<path id="Vector_4" d="M4.76358 16.1506C4.64711 16.1506 4.53357 16.1139 4.43883 16.0456C4.3441 15.9774 4.2729 15.8811 4.23518 15.7701C4.19747 15.6591 4.19513 15.539 4.22849 15.4267C4.26185 15.3143 4.32925 15.2152 4.42125 15.1433L11.2977 9.77943C11.3557 9.7342 11.422 9.70091 11.4927 9.68147C11.5635 9.66202 11.6373 9.6568 11.7101 9.6661C11.7828 9.6754 11.853 9.69904 11.9167 9.73566C11.9804 9.77229 12.0363 9.8212 12.0812 9.87958C12.1261 9.93796 12.1592 10.0047 12.1785 10.0759C12.1978 10.1472 12.203 10.2216 12.1937 10.2948C12.1845 10.3681 12.161 10.4388 12.1246 10.5029C12.0883 10.5671 12.0397 10.6234 11.9817 10.6686L5.10525 16.0324C5.00759 16.109 4.88735 16.1506 4.76358 16.1506Z" fill="#FB4E56"/>
</g>
</svg>
