<svg width="18" height="20" viewBox="0 0 18 20" fill="none" xmlns="http://www.w3.org/2000/svg">
<g id="icons-08 1">
<path id="Vector" d="M10.8684 7.96121C11.7524 8.67228 12.8264 9.07334 13.9387 9.10776V6.77429C13.5244 6.76278 13.1163 6.6655 12.7377 6.48801C12.3591 6.31051 12.0175 6.05628 11.7324 5.73985C11.4472 5.42342 11.2242 5.05098 11.0759 4.64383C10.9277 4.23667 10.8571 3.80278 10.8684 3.36694H8.68075V12.3536C8.6871 12.7291 8.6458 13.1039 8.55794 13.4679C8.42767 13.7968 8.21337 14.0814 7.93876 14.2901C7.66416 14.4988 7.33999 14.6234 7.00219 14.6501C6.66438 14.6769 6.32612 14.6047 6.02491 14.4417C5.7237 14.2786 5.4713 14.031 5.29568 13.7262C4.75069 12.4344 5.44152 10.6338 7.49866 10.9568V8.45374C2.517 7.58979 0.86668 15.3411 5.82532 16.8994C6.46236 17.0731 7.12786 17.098 7.775 16.9721C9.80911 16.5603 10.8914 14.5498 10.8454 12.499L10.8684 7.96121Z" fill="#FB4E56"/>
</g>
</svg>
