<svg width="18" height="20" viewBox="0 0 18 20" fill="none" xmlns="http://www.w3.org/2000/svg">
<g id="wp 1">
<g id="logo">
<path id="Vector" d="M14.7911 4.96534C13.5541 3.76239 11.9069 3.03636 10.1572 2.92287C8.40747 2.80939 6.67489 3.31621 5.28311 4.34867C3.89134 5.38113 2.93558 6.86859 2.59437 8.5332C2.25316 10.1978 2.54984 11.9257 3.42899 13.3941L2.4043 17.0397L6.23184 16.0408C7.29157 16.5959 8.47761 16.8866 9.68266 16.8866C11.1116 16.8904 12.5095 16.4832 13.6989 15.7167C14.8883 14.9502 15.8155 13.8591 16.3629 12.5817C16.9102 11.3043 17.053 9.89839 16.7732 8.54233C16.4933 7.18628 15.8034 5.94127 14.7911 4.96534ZM9.68266 15.7127C8.62196 15.7042 7.58236 15.4251 6.66884 14.9034L6.45034 14.7721L4.18998 15.3481L4.80028 13.2118L4.65712 12.9858C4.14449 12.2212 3.82411 11.3511 3.72167 10.4452C3.61922 9.53923 3.73757 8.62265 4.06721 7.76894C4.39685 6.91524 4.92862 6.14816 5.61988 5.52921C6.31114 4.91026 7.14264 4.45667 8.04773 4.20481C8.95281 3.95295 9.90629 3.90982 10.8317 4.07888C11.7571 4.24795 12.6287 4.62451 13.3766 5.17836C14.1245 5.73221 14.7279 6.44794 15.1384 7.26817C15.5489 8.0884 15.7551 8.9903 15.7404 9.90154C15.7375 10.6682 15.5784 11.4267 15.2722 12.1338C14.9661 12.8409 14.519 13.4826 13.9563 14.0223C13.3937 14.562 12.7267 14.9891 11.9934 15.2792C11.2601 15.5692 10.4748 15.7165 9.68266 15.7127ZM12.9752 11.3379C12.7944 11.2504 11.9129 10.8275 11.7471 10.7692C11.5814 10.7109 11.4608 10.6817 11.3403 10.8567C11.2197 11.0317 10.8731 11.4254 10.7676 11.5421C10.6621 11.6587 10.5567 11.6733 10.3758 11.5858C9.84428 11.3819 9.35444 11.0881 8.9292 10.7182C8.53134 10.3692 8.19087 9.96352 7.91958 9.51511C7.81409 9.34012 7.91958 9.24533 8.00245 9.15783C8.08533 9.07034 8.18328 8.95368 8.2737 8.8516C8.34811 8.76327 8.40901 8.66505 8.45453 8.55995C8.48091 8.51295 8.49472 8.46031 8.49472 8.40683C8.49472 8.35335 8.48091 8.30071 8.45453 8.25371C8.40932 8.16622 8.04766 7.30585 7.89697 6.95586C7.74628 6.60588 7.60312 6.66421 7.49011 6.65692H7.12845C7.03681 6.65914 6.94665 6.67973 6.86365 6.71738C6.78065 6.75503 6.70662 6.80892 6.64624 6.87566C6.44328 7.06353 6.28289 7.29017 6.17523 7.54121C6.06758 7.79224 6.01501 8.06218 6.02087 8.33392C6.08495 8.99475 6.34679 9.62315 6.77433 10.1422C7.55185 11.2603 8.61291 12.1666 9.85595 12.7743C10.1924 12.9153 10.537 13.037 10.8882 13.1389C11.256 13.2506 11.6461 13.2756 12.0259 13.2118C12.2711 13.1607 12.503 13.062 12.7077 12.9216C12.9123 12.7812 13.0853 12.6021 13.2164 12.3952C13.3347 12.134 13.3714 11.845 13.3218 11.564C13.2766 11.491 13.1561 11.4473 12.9752 11.3598V11.3379Z" fill="#FB4E56"/>
</g>
</g>
</svg>
