<svg width="18" height="16" viewBox="0 0 18 16" fill="none" xmlns="http://www.w3.org/2000/svg">
<path id="Vector" d="M18 7.99962C18.0001 7.93819 17.9826 7.87805 17.9496 7.82655C17.9166 7.77505 17.8695 7.73443 17.8141 7.70965L0.429057 0.0237112C0.37249 5.78035e-05 0.310288 -0.00607044 0.250293 0.00609886C0.190299 0.0182681 0.135198 0.0481903 0.0919368 0.0920931C0.0486753 0.135996 0.0191902 0.191914 0.00719867 0.252798C-0.00479287 0.313681 0.00124586 0.376805 0.0245538 0.434211L2.50665 6.63537C2.5256 6.68193 2.55512 6.72329 2.59281 6.75608C2.6305 6.78887 2.67529 6.81215 2.72354 6.82402L7.6447 7.99788L2.72354 9.16824C2.67524 9.17941 2.63032 9.20223 2.59256 9.23476C2.55481 9.2673 2.52534 9.30859 2.50665 9.35514L0.0245538 15.5615C7.13946e-05 15.6202 -0.00628974 15.685 0.00631223 15.7474C0.0189142 15.8097 0.0498852 15.8668 0.0951266 15.9109C0.152961 15.9685 0.230949 16.0006 0.312009 16C0.354647 15.9999 0.396818 15.991 0.435942 15.9738L17.821 8.28785C17.8749 8.26234 17.9205 8.22159 17.9523 8.17047C17.984 8.11936 18.0006 8.06004 18 7.99962ZM0.885199 15.0829L3.02132 9.74818L9.07165 8.30531C9.14011 8.28948 9.20123 8.25053 9.24501 8.19483C9.28879 8.13913 9.31264 8.07 9.31264 7.99875C9.31264 7.9275 9.28879 7.85837 9.24501 7.80267C9.20123 7.74697 9.14011 7.70802 9.07165 7.69219L3.02132 6.24932L0.885199 0.914582L16.9207 7.99962L0.885199 15.0829Z" fill="white"/>
</svg>
