<svg width="183" height="51" viewBox="0 0 183 51" fill="none" xmlns="http://www.w3.org/2000/svg">
<path d="M8.26694 50.8477C-2.93531 39.0566 -2.75801 20.4041 8.83109 8.84548C13.5054 4.18034 19.3403 1.36684 25.4249 0.388921L27.9716 5.27849L28.2618 0.0682932C34.3787 -0.340507 40.5923 1.08629 46 4.34066L38.231 16.3241C35.8374 14.9775 33.1295 14.2561 30.3088 14.2561H30.2846C25.981 14.2561 21.9353 15.9394 18.8889 18.9693C14.7546 23.0894 13.3523 28.9088 14.674 34.1831C10.2253 36.0668 7.0903 40.4433 7.08225 45.5654C7.08225 47.4571 7.50938 49.2446 8.26694 50.8557V50.8477ZM39.6091 41.782C42.0913 44.2428 43.4614 47.5132 43.4775 51H37.5056C37.4895 49.1083 36.74 47.3288 35.3941 45.9902C34.0321 44.6436 32.2269 43.8981 30.3088 43.8981C30.3088 43.8981 30.3088 43.8981 30.3007 43.8981C26.3517 43.8981 23.1522 47.0803 23.1119 51H17.1401C17.1562 46.8559 19.1227 43.1607 22.169 40.772C21.7661 40.4594 21.3792 40.1227 21.0085 39.762C15.8667 34.664 15.8506 26.3517 20.9843 21.2377C23.4665 18.7609 26.7708 17.3902 30.2927 17.3902H30.3168C33.8306 17.3902 37.1269 18.7449 39.6171 21.2137C42.1074 23.6825 43.4855 26.969 43.4855 30.4718C43.4855 33.9747 42.1235 37.2611 39.6413 39.738C39.2625 40.1147 38.8676 40.4513 38.4566 40.772C38.8596 41.0846 39.2464 41.4212 39.6091 41.79V41.782ZM25.2234 35.5538C26.5854 36.9004 28.3907 37.6459 30.3088 37.6459C30.3088 37.6459 30.3088 37.6459 30.3168 37.6459C32.243 37.6459 34.0482 36.8924 35.4022 35.5377C36.7642 34.1831 37.5056 32.3795 37.5056 30.4718C37.5056 28.5561 36.7481 26.7605 35.3861 25.4139C34.0241 24.0673 32.2188 23.3218 30.3007 23.3218H30.2927C28.3665 23.3218 26.5613 24.0753 25.2073 25.4299C22.4027 28.2274 22.4108 32.7723 25.2234 35.5618V35.5538Z" fill="url(#paint0_linear_2035_112)"/>
<path d="M142.666 11.0439C138.315 11.0439 134.49 13.3166 132.298 16.7296C130.106 13.3166 126.281 11.0439 121.929 11.0439C115.136 11.0439 109.612 16.5679 109.612 23.3616V37.2968H113.809V23.3616C113.809 18.8891 117.449 15.2415 121.929 15.2415C126.41 15.2415 130.049 18.881 130.049 23.3616V37.2968H134.554V23.3616C134.554 18.8891 138.194 15.2415 142.674 15.2415C147.155 15.2415 150.795 18.881 150.795 23.3616V37.2968H154.992V23.3616C154.992 16.5679 149.468 11.0439 142.674 11.0439H142.666Z" fill="#200F44"/>
<path d="M170.691 11.0439C163.897 11.0439 158.373 16.5679 158.373 23.3616V37.2968H162.57V27.9393H178.803V37.2968H183V23.3616C183 16.5679 177.476 11.0439 170.682 11.0439H170.691ZM162.57 23.7417V23.3616C162.57 18.8891 166.21 15.2415 170.691 15.2415C175.171 15.2415 178.811 18.881 178.811 23.3616V23.7417H162.578H162.57Z" fill="#200F44"/>
<path d="M93.0237 10.874C85.1139 10.874 78.676 17.3119 78.676 25.2217C78.676 33.1315 85.1139 39.5694 93.0237 39.5694C100.934 39.5694 107.371 33.1315 107.371 25.2217C107.371 17.3119 100.934 10.874 93.0237 10.874ZM93.0237 35.2263C87.5079 35.2263 83.0192 30.7376 83.0192 25.2217C83.0192 19.7059 87.5079 15.2172 93.0237 15.2172C98.5396 15.2172 103.028 19.7059 103.028 25.2217C103.028 30.7376 98.5396 35.2263 93.0237 35.2263Z" fill="#200F44"/>
<path d="M55.5208 38.7849V19.9404L68.5825 38.7849H73.8719L68.9141 31.6272C72.861 30.0744 75.6674 26.2408 75.6674 21.744C75.6674 15.8884 70.9037 11.1248 65.0482 11.1248H51.1938V12.9849V38.7768H55.537L55.5208 38.7849ZM65.0401 15.476C68.5017 15.476 71.3162 18.2905 71.3162 21.7521C71.3162 24.7769 69.1729 27.3003 66.318 27.8907L57.7126 15.476H65.0401Z" fill="#200F44"/>
<defs>
<linearGradient id="paint0_linear_2035_112" x1="3.74575" y1="51.6733" x2="48.4304" y2="7.81826" gradientUnits="userSpaceOnUse">
<stop offset="0.17" stop-color="#FF5053"/>
<stop offset="1" stop-color="#990FA2"/>
</linearGradient>
</defs>
</svg>
