<svg width="65" height="53" viewBox="0 0 65 53" fill="none" xmlns="http://www.w3.org/2000/svg">
<g id="Group">
<path id="Vector" d="M43.935 45.8208H37.6496" stroke="white" stroke-width="2" stroke-linecap="round" stroke-linejoin="round"/>
<path id="Vector_2" d="M27.8707 19.4247V11.8714" stroke="white" stroke-width="2" stroke-linecap="round" stroke-linejoin="round"/>
<path id="Vector_3" d="M27.8707 40.3986V32.8318" stroke="white" stroke-width="2" stroke-linecap="round" stroke-linejoin="round"/>
<path id="Vector_4" d="M21.9088 1H33.8457C35.9363 1 37.6358 2.6995 37.6358 4.79014V8.10821C37.6358 10.1989 35.9363 11.8984 33.8457 11.9118H21.9088C19.8181 11.9118 18.1051 10.2123 18.1051 8.10821V4.79014C18.1051 2.6995 19.8046 1 21.9088 1Z" stroke="white" stroke-width="2" stroke-linecap="round" stroke-linejoin="round"/>
<path id="Vector_5" d="M21.9088 40.3582H33.8457C35.9363 40.3582 37.6358 42.0577 37.6358 44.1483V47.4664C37.6358 49.557 35.9363 51.2565 33.8457 51.27H21.9088C19.8181 51.27 18.1051 49.5705 18.1051 47.4664V44.1483C18.1051 42.0577 19.8046 40.3582 21.9088 40.3582Z" stroke="white" stroke-width="2" stroke-linecap="round" stroke-linejoin="round"/>
<path id="Vector_6" d="M47.725 40.3582H59.6619C61.7525 40.3582 63.452 42.0577 63.4655 44.1483V47.4664C63.4655 49.557 61.766 51.27 59.6619 51.27H47.725C45.6343 51.27 43.9348 49.5705 43.9348 47.4799V44.1618C43.9348 42.0712 45.6343 40.3717 47.725 40.3717V40.3582Z" stroke="white" stroke-width="2" stroke-linecap="round" stroke-linejoin="round"/>
<path id="Vector_7" d="M27.8698 19.3341L21.0601 26.1439L27.8698 32.9537L34.6796 26.1439L27.8698 19.3341Z" stroke="white" stroke-width="2" stroke-linecap="round" stroke-linejoin="round"/>
<path id="Vector_8" d="M42.1812 26.1148H34.6279" stroke="white" stroke-width="2" stroke-linecap="round" stroke-linejoin="round"/>
<path id="Vector_9" d="M54.3073 20.0452H42.2894V32.063H54.3073V20.0452Z" stroke="white" stroke-width="2" stroke-linecap="round" stroke-linejoin="round"/>
<path id="Vector_10" d="M13.5327 26.1148H21.086" stroke="white" stroke-width="2" stroke-linecap="round" stroke-linejoin="round"/>
<path id="Vector_11" d="M13.4248 20.0452H1.40698V32.063H13.4248V20.0452Z" stroke="white" stroke-width="2" stroke-linecap="round" stroke-linejoin="round"/>
</g>
</svg>
