<svg width="124" height="124" viewBox="0 0 124 124" fill="none" xmlns="http://www.w3.org/2000/svg">
<g filter="url(#filter0_d_354_914)">
<circle cx="58" cy="58" r="40" fill="url(#paint0_linear_354_914)"/>
</g>
<path d="M68.6561 83.3087L69.2305 83.8831C69.7572 84.4098 69.7572 85.2638 69.2305 85.7905L67.722 87.299C67.1953 87.8257 66.3413 87.8257 65.8146 87.299L65.2402 86.7246C64.8284 86.3128 64.1955 86.2066 63.6775 86.4754C63.1248 86.7637 62.5439 87.0043 61.9392 87.195C61.3821 87.3727 61.0071 87.8972 61.0071 88.4825V89.2909C61.0071 90.0344 60.4046 90.6391 59.659 90.6391H57.5262C56.7827 90.6391 56.178 90.0365 56.178 89.2909V88.4825C56.178 87.8972 55.8052 87.3727 55.246 87.195C54.6434 87.0043 54.0626 86.7615 53.5077 86.4754C52.9897 86.2066 52.3568 86.3107 51.945 86.7246L51.3706 87.299C50.8439 87.8257 49.9899 87.8257 49.4632 87.299L47.9546 85.7905C47.4279 85.2638 47.4279 84.4098 47.9546 83.8831L48.529 83.3087" stroke="white" stroke-linecap="round" stroke-linejoin="round"/>
<path d="M46.7712 79.0757H45.9627C45.2193 79.0757 44.6145 78.4731 44.6145 77.7275V75.5947C44.6145 74.8513 45.2171 74.2466 45.9627 74.2466H46.7712C47.3564 74.2466 47.8809 73.8738 48.0587 73.3145C48.2494 72.712 48.4922 72.1311 48.7783 71.5762C49.047 71.0582 48.943 70.4253 48.529 70.0135L47.9546 69.4391C47.4279 68.9124 47.4279 68.0584 47.9546 67.5317L49.4632 66.0232C49.9899 65.4965 50.8439 65.4965 51.3706 66.0232L51.9449 66.5976C52.3568 67.0094 52.9897 67.1156 53.5077 66.8468C54.0604 66.5585 54.6413 66.318 55.246 66.1272C55.803 65.9495 56.178 65.425 56.178 64.8397V64.0313C56.178 63.2878 56.7806 62.6831 57.5262 62.6831H59.659C60.4024 62.6831 61.0071 63.2857 61.0071 64.0313V64.8397C61.0071 65.425 61.3799 65.9495 61.9391 66.1272C62.5417 66.318 63.1226 66.5607 63.6774 66.8468C64.1955 67.1156 64.8284 67.0115 65.2402 66.5976L65.8146 66.0232C66.3413 65.4965 67.1953 65.4965 67.7219 66.0232L69.2305 67.5317C69.7572 68.0584 69.7572 68.9124 69.2305 69.4391L68.6561 70.0135C68.2443 70.4253 68.1381 71.0582 68.4069 71.5762C68.6951 72.1289 68.9357 72.7098 69.1265 73.3145C69.3042 73.8716 69.8287 74.2466 70.4139 74.2466H71.2224C71.9659 74.2466 72.5706 74.8491 72.5706 75.5947V77.7275C72.5706 78.471 71.968 79.0757 71.2224 79.0757" stroke="white" stroke-linecap="round" stroke-linejoin="round"/>
<path d="M58.5926 83.3933C62.3106 83.3933 65.3247 80.3792 65.3247 76.6611C65.3247 72.943 62.3106 69.929 58.5926 69.929C54.8745 69.929 51.8604 72.943 51.8604 76.6611C51.8604 80.3792 54.8745 83.3933 58.5926 83.3933Z" stroke="white" stroke-linecap="round" stroke-linejoin="round"/>
<path d="M51.2275 81.5119H43.9946C41.7882 81.5119 40 79.7237 40 77.5173V39.6017C40 37.3952 41.7882 35.6071 43.9946 35.6071H47.1895C47.1765 35.7111 47.1722 35.8195 47.1722 35.9257V37.7984C47.1722 39.3611 48.438 40.6291 50.0029 40.6291H67.2949C68.8577 40.6291 70.1257 39.3633 70.1257 37.7984V35.9257C70.1257 35.8173 70.1192 35.7111 70.1083 35.6071H73.3032C75.5097 35.6071 77.2978 37.3952 77.2978 39.6017V77.5173C77.2978 79.7237 75.5097 81.5119 73.3032 81.5119H65.6" stroke="white" stroke-linecap="round" stroke-linejoin="round"/>
<path d="M70.1257 35.9256V37.7983C70.1257 39.3611 68.8599 40.6291 67.2949 40.6291H50.0029C48.4401 40.6291 47.1721 39.3632 47.1721 37.7983V35.9256C47.1721 35.8173 47.1787 35.7111 47.1895 35.607C47.3477 34.1938 48.5442 33.0971 50.0007 33.0971H54.7019V30.9448C54.7019 28.7665 56.4684 27 58.6467 27C59.737 27 60.7232 27.4422 61.4363 28.1553C62.1494 28.8684 62.5915 29.8546 62.5915 30.9448V33.0971H67.2928C68.7493 33.0971 69.9458 34.1938 70.104 35.607C70.117 35.7111 70.1213 35.8194 70.1213 35.9256H70.1257Z" stroke="white" stroke-linecap="round" stroke-linejoin="round"/>
<path d="M45.3797 46.724H71.9182" stroke="white" stroke-linecap="round" stroke-linejoin="round"/>
<path d="M45.3797 52.821H71.9182" stroke="white" stroke-linecap="round" stroke-linejoin="round"/>
<path d="M45.3797 58.9182H71.9182" stroke="white" stroke-linecap="round" stroke-linejoin="round"/>
<defs>
<filter id="filter0_d_354_914" x="0" y="0" width="124" height="124" filterUnits="userSpaceOnUse" color-interpolation-filters="sRGB">
<feFlood flood-opacity="0" result="BackgroundImageFix"/>
<feColorMatrix in="SourceAlpha" type="matrix" values="0 0 0 0 0 0 0 0 0 0 0 0 0 0 0 0 0 0 127 0" result="hardAlpha"/>
<feOffset dx="4" dy="4"/>
<feGaussianBlur stdDeviation="11"/>
<feComposite in2="hardAlpha" operator="out"/>
<feColorMatrix type="matrix" values="0 0 0 0 0 0 0 0 0 0 0 0 0 0 0 0 0 0 0.16 0"/>
<feBlend mode="normal" in2="BackgroundImageFix" result="effect1_dropShadow_354_914"/>
<feBlend mode="normal" in="SourceGraphic" in2="effect1_dropShadow_354_914" result="shape"/>
</filter>
<linearGradient id="paint0_linear_354_914" x1="24.5143" y1="99.0562" x2="94.371" y2="23.0443" gradientUnits="userSpaceOnUse">
<stop offset="0.17" stop-color="#FF5053"/>
<stop offset="1" stop-color="#990FA2"/>
</linearGradient>
</defs>
</svg>
