<svg width="73" height="54" viewBox="0 0 73 54" fill="none" xmlns="http://www.w3.org/2000/svg">
<g id="Group">
<path id="Vector" d="M64.528 27.3906C63.5968 22.2919 59.582 19.1014 54.5138 18.2771C56.4678 10.9954 52.2393 3.46949 45.0797 1.48497C38.714 -0.285831 32.0277 2.91993 29.2952 9.02615C24.3033 5.6372 17.556 6.99583 14.2128 12.064C13.0221 13.8653 12.3962 15.9872 12.381 18.1549C5.69465 18.5824 0.611225 24.4291 1.02339 31.2375C1.4203 37.7559 6.74797 42.824 13.1595 42.7935H49.0946" stroke="#9A10A2" stroke-width="2" stroke-linecap="round" stroke-linejoin="round"/>
<path id="Vector_2" d="M70.7106 28.5201C68.9703 28.4895 63.3526 27.9858 60.2537 25.3601C60.0705 25.2074 59.8263 25.2074 59.6431 25.3601C56.5289 27.9858 50.9112 28.4895 49.1709 28.5201C48.8809 28.5201 48.6519 28.7643 48.6519 29.0544V39.4044C48.6519 50.0139 59.9331 52.0137 59.9331 52.0137C59.9331 52.0137 71.2143 50.0139 71.2143 39.4044V29.0544C71.2143 28.7643 71.0006 28.5353 70.7106 28.5201Z" stroke="#9A10A2" stroke-width="2" stroke-linecap="round" stroke-linejoin="round"/>
<path id="Vector_3" d="M55.3382 38.3513L58.8645 41.9693L65.3677 35.283" stroke="#9A10A2" stroke-width="2" stroke-linecap="round" stroke-linejoin="round"/>
</g>
</svg>
