<svg width="73" height="52" viewBox="0 0 73 52" fill="none" xmlns="http://www.w3.org/2000/svg">
<g id="Group 50">
<g id="Layer_2">
<g id="Layer_1-2">
<path id="Vector" d="M46.766 29.6685L51.0251 34.6146L57.055 25.4858M51.4067 42.6595C44.9036 39.7896 40.4155 34.4619 40.4155 28.2641C40.4155 25.0889 40.4919 21.9137 40.4919 18.83C41.4231 19.9902 43.4381 20.7687 45.7585 20.7687C48.4605 20.7687 50.7808 19.6086 51.483 18.1431C52.1853 19.6849 54.4293 20.7687 57.1313 20.7687C59.3753 20.7687 61.3904 19.9902 62.3979 18.83V28.2641C62.3216 34.4467 57.9098 39.7896 51.4067 42.6595Z" stroke="#FB4E56" stroke-width="2" stroke-linecap="round" stroke-linejoin="round"/>
</g>
</g>
<g id="Group">
<path id="Vector_2" d="M71.2215 9.04494C71.2215 4.57214 67.6493 1 63.1765 1H9.04494C4.57214 1 1 4.57214 1 9.04494V42.5833C1 47.0561 4.57214 50.6283 9.04494 50.6283H63.1613C67.6341 50.6283 71.2062 47.0561 71.2062 42.5833V9.04494H71.2215Z" stroke="#FB4E56" stroke-width="2" stroke-linecap="round" stroke-linejoin="round"/>
<g id="Group_2">
<path id="Vector_3" d="M1.00001 10.6636H71.1299" stroke="#FB4E56" stroke-width="2" stroke-linecap="round" stroke-linejoin="round"/>
<path id="Vector_4" d="M9.76243 6.81615C10.2093 6.81615 10.5715 6.45391 10.5715 6.00707C10.5715 5.56023 10.2093 5.198 9.76243 5.198C9.31559 5.198 8.95335 5.56023 8.95335 6.00707C8.95335 6.45391 9.31559 6.81615 9.76243 6.81615Z" stroke="#FB4E56" stroke-width="2" stroke-linecap="round" stroke-linejoin="round"/>
<path id="Vector_5" d="M15.945 6.81615C16.3918 6.81615 16.754 6.45391 16.754 6.00707C16.754 5.56023 16.3918 5.198 15.945 5.198C15.4981 5.198 15.1359 5.56023 15.1359 6.00707C15.1359 6.45391 15.4981 6.81615 15.945 6.81615Z" stroke="#FB4E56" stroke-width="2" stroke-linecap="round" stroke-linejoin="round"/>
<path id="Vector_6" d="M22.1122 6.81615C22.5591 6.81615 22.9213 6.45391 22.9213 6.00707C22.9213 5.56023 22.5591 5.198 22.1122 5.198C21.6654 5.198 21.3032 5.56023 21.3032 6.00707C21.3032 6.45391 21.6654 6.81615 22.1122 6.81615Z" stroke="#FB4E56" stroke-width="2" stroke-linecap="round" stroke-linejoin="round"/>
</g>
</g>
</g>
</svg>
