<svg width="73" height="73" viewBox="0 0 73 73" fill="none" xmlns="http://www.w3.org/2000/svg">
<g id="Group 49">
<path id="Vector" d="M35.8818 25.1655C35.7749 25.1655 31.5464 28.9361 26.982 29.3178C27.272 41.0875 31.8364 47.0105 35.8665 47.0563C39.8966 47.1021 44.4763 41.1943 44.7663 29.3178C40.3699 28.9514 35.9276 25.2113 35.8818 25.1655Z" stroke="#F3437D" stroke-width="2" stroke-linecap="round" stroke-linejoin="round"/>
<path id="Vector_2" d="M35.8818 57.0857C47.3394 57.0857 56.6276 47.6949 56.6276 36.1108C56.6276 24.5267 47.3394 15.136 35.8818 15.136C24.4241 15.136 15.1359 24.5267 15.1359 36.1108C15.1359 47.6949 24.4241 57.0857 35.8818 57.0857Z" stroke="#F3437D" stroke-width="2" stroke-linecap="round" stroke-linejoin="round"/>
<path id="Vector_3" d="M35.8818 8.75489C38.0233 8.75489 39.7593 7.0189 39.7593 4.87745C39.7593 2.73599 38.0233 1 35.8818 1C33.7404 1 32.0044 2.73599 32.0044 4.87745C32.0044 7.0189 33.7404 8.75489 35.8818 8.75489Z" stroke="#F3437D" stroke-width="2" stroke-linecap="round" stroke-linejoin="round"/>
<path id="Vector_4" d="M36.1107 8.75488V15.1359" stroke="#F3437D" stroke-width="2" stroke-linecap="round" stroke-linejoin="round"/>
<path id="Vector_5" d="M13.9909 17.8682C16.1324 17.8682 17.8684 16.1322 17.8684 13.9907C17.8684 11.8493 16.1324 10.1133 13.9909 10.1133C11.8495 10.1133 10.1135 11.8493 10.1135 13.9907C10.1135 16.1322 11.8495 17.8682 13.9909 17.8682Z" stroke="#F3437D" stroke-width="2" stroke-linecap="round" stroke-linejoin="round"/>
<path id="Vector_6" d="M16.5098 16.9524L21.059 21.5168" stroke="#F3437D" stroke-width="2" stroke-linecap="round" stroke-linejoin="round"/>
<path id="Vector_7" d="M4.87745 40.2173C7.0189 40.2173 8.75489 38.3787 8.75489 36.1108C8.75489 33.8429 7.0189 32.0044 4.87745 32.0044C2.73599 32.0044 1 33.8429 1 36.1108C1 38.3787 2.73599 40.2173 4.87745 40.2173Z" stroke="#F3437D" stroke-width="2" stroke-linecap="round" stroke-linejoin="round"/>
<path id="Vector_8" d="M8.75482 36.1108H15.1358" stroke="#F3437D" stroke-width="2" stroke-linecap="round" stroke-linejoin="round"/>
<path id="Vector_9" d="M13.9909 62.1077C16.1324 62.1077 17.8684 60.3717 17.8684 58.2302C17.8684 56.0888 16.1324 54.3528 13.9909 54.3528C11.8495 54.3528 10.1135 56.0888 10.1135 58.2302C10.1135 60.3717 11.8495 62.1077 13.9909 62.1077Z" stroke="#F3437D" stroke-width="2" stroke-linecap="round" stroke-linejoin="round"/>
<path id="Vector_10" d="M16.5098 55.269L21.059 50.7046" stroke="#F3437D" stroke-width="2" stroke-linecap="round" stroke-linejoin="round"/>
<path id="Vector_11" d="M35.8818 71.2214C38.0233 71.2214 39.7593 69.4855 39.7593 67.344C39.7593 65.2025 38.0233 63.4666 35.8818 63.4666C33.7404 63.4666 32.0044 65.2025 32.0044 67.344C32.0044 69.4855 33.7404 71.2214 35.8818 71.2214Z" stroke="#F3437D" stroke-width="2" stroke-linecap="round" stroke-linejoin="round"/>
<path id="Vector_12" d="M36.1107 63.4664V57.0854" stroke="#F3437D" stroke-width="2" stroke-linecap="round" stroke-linejoin="round"/>
<path id="Vector_13" d="M58.0016 62.1077C60.2695 62.1077 62.108 60.3717 62.108 58.2302C62.108 56.0888 60.2695 54.3528 58.0016 54.3528C55.7337 54.3528 53.8951 56.0888 53.8951 58.2302C53.8951 60.3717 55.7337 62.1077 58.0016 62.1077Z" stroke="#F3437D" stroke-width="2" stroke-linecap="round" stroke-linejoin="round"/>
<path id="Vector_14" d="M55.269 55.269L50.7047 50.7046" stroke="#F3437D" stroke-width="2" stroke-linecap="round" stroke-linejoin="round"/>
<path id="Vector_15" d="M67.3441 40.2173C69.4855 40.2173 71.2215 38.3787 71.2215 36.1108C71.2215 33.8429 69.4855 32.0044 67.3441 32.0044C65.2026 32.0044 63.4666 33.8429 63.4666 36.1108C63.4666 38.3787 65.2026 40.2173 67.3441 40.2173Z" stroke="#F3437D" stroke-width="2" stroke-linecap="round" stroke-linejoin="round"/>
<path id="Vector_16" d="M63.4665 36.1108H56.6275" stroke="#F3437D" stroke-width="2" stroke-linecap="round" stroke-linejoin="round"/>
<path id="Vector_17" d="M58.0016 17.8682C60.2695 17.8682 62.108 16.1322 62.108 13.9907C62.108 11.8493 60.2695 10.1133 58.0016 10.1133C55.7337 10.1133 53.8951 11.8493 53.8951 13.9907C53.8951 16.1322 55.7337 17.8682 58.0016 17.8682Z" stroke="#F3437D" stroke-width="2" stroke-linecap="round" stroke-linejoin="round"/>
<path id="Vector_18" d="M55.269 16.9524L50.7047 21.5168" stroke="#F3437D" stroke-width="2" stroke-linecap="round" stroke-linejoin="round"/>
<path id="Vector_19" d="M33.3781 36.1108H38.8432" stroke="#F3437D" stroke-width="2" stroke-linecap="round" stroke-linejoin="round"/>
<path id="Vector_20" d="M36.1107 33.3782V38.8432" stroke="#F3437D" stroke-width="2" stroke-linecap="round" stroke-linejoin="round"/>
</g>
</svg>
