<svg width="14" height="14" viewBox="0 0 14 14" fill="none" xmlns="http://www.w3.org/2000/svg">
<path id="Vector" d="M13.2793 12.7048V12.6954C13.6639 12.2133 14.0914 11.5744 13.9829 10.9168C13.9065 10.4614 13.5942 10.0636 13.034 9.71136C12.9898 9.6819 11.9418 8.9841 11.2503 8.6948C10.2841 8.29299 9.7534 8.81936 9.52692 9.04571L8.9051 9.66181C8.57543 9.94307 8.00721 9.7636 7.64806 9.42608L6.10958 7.97021L4.57915 6.34826C4.24278 5.98798 4.06186 5.42009 4.33123 5.10401L4.95975 4.4705C5.18355 4.24415 5.71961 3.71243 5.31757 2.74676C5.02676 2.05565 4.32855 1.0056 4.30175 0.969442C3.94125 0.404237 3.54457 0.0935085 3.08759 0.0171657C2.42288 -0.0913215 1.78632 0.334591 1.29717 0.72702C1.26233 0.757825 0.439488 1.48911 0.150019 2.3637C-0.76127 5.11606 2.72307 8.57292 4.0364 9.87476L4.13021 9.96852C5.28406 11.1311 8.13586 14 10.6861 14C11.0115 14.0017 11.3351 13.9511 11.6443 13.8499C12.5154 13.5606 13.2485 12.7396 13.2793 12.7048ZM11.4889 13.3919C9.01901 14.2089 5.7129 10.8806 4.46926 9.62832L4.37947 9.53189C3.12645 8.28764 -0.203776 4.97811 0.612365 2.51505C0.860289 1.76769 1.6121 1.09668 1.61076 1.09668C2.21248 0.618533 2.644 0.427006 3.00986 0.492634C3.32345 0.544869 3.61292 0.785951 3.89837 1.23329C3.90641 1.24401 4.6006 2.28468 4.87264 2.93426C5.13129 3.54903 4.8914 3.86109 4.62338 4.1303L3.97744 4.77721C3.50303 5.33304 3.75229 6.17147 4.22804 6.67774L5.70218 8.24344L7.32776 9.77297C7.83567 10.2498 8.6679 10.4989 9.24147 10.0127L9.87401 9.38322C10.142 9.11535 10.4543 8.87695 11.0694 9.1341C11.718 9.40197 12.7593 10.1011 12.7741 10.1105C13.2176 10.3931 13.4589 10.6824 13.5111 10.9971C13.5714 11.3614 13.3865 11.7914 12.9121 12.3887C12.8585 12.449 12.2099 13.1535 11.4889 13.3919Z" fill="white"/>
</svg>
