<svg width="61" height="57" viewBox="0 0 61 57" fill="none" xmlns="http://www.w3.org/2000/svg">
<g id="Group">
<path id="Vector" d="M49.422 4.73326L40.9851 8.38753C40.3312 8.66961 40.0235 9.45176 40.2927 10.1185L43.3828 17.504C43.6649 18.1707 44.4214 18.4913 45.0881 18.2092L53.525 14.5549C54.6277 15.1832 55.7817 14.8755 56.9485 14.3626L60.0001 13.0419L54.9739 1.04053L51.9223 2.36119C50.7683 2.86125 49.7425 3.50235 49.422 4.73326Z" stroke="white" stroke-width="2" stroke-linecap="round" stroke-linejoin="round"/>
<path id="Vector_2" d="M19.8928 18.3373L39.9464 9.79785L43.2416 17.5295L23.188 26.069C22.5469 26.3382 21.8033 26.0433 21.5212 25.4022L19.226 20.0042C18.9568 19.3631 19.2517 18.6194 19.8928 18.3373Z" stroke="white" stroke-width="2" stroke-linecap="round" stroke-linejoin="round"/>
<path id="Vector_3" d="M3.55759 27.1076C3.36526 26.6589 2.83956 26.4537 2.39079 26.646L1.54454 27.0051C1.09577 27.1974 0.877796 27.7103 1.07013 28.159L3.30115 33.3648C3.49348 33.8135 4.01918 34.0187 4.46795 33.8264L5.3142 33.4673C5.76297 33.275 5.98095 32.7621 5.78862 32.3134L21.6494 25.6203L19.4184 20.4146L3.55759 27.1076Z" stroke="white" stroke-width="2" stroke-linecap="round" stroke-linejoin="round"/>
<path id="Vector_4" d="M25.8677 25.4663C27.1114 28.5821 30.599 30.0822 33.6378 28.8C34.0225 28.6462 34.3815 28.441 34.7149 28.2102" stroke="white" stroke-width="2" stroke-linecap="round" stroke-linejoin="round"/>
<path id="Vector_5" d="M29.2271 28.8386L17.854 55.3801H20.5594" stroke="white" stroke-width="2" stroke-linecap="round" stroke-linejoin="round"/>
<path id="Vector_6" d="M33.4458 26.3127L52.4095 54.1236" stroke="white" stroke-width="2" stroke-linecap="round" stroke-linejoin="round"/>
</g>
</svg>
