<svg width="19" height="16" viewBox="0 0 19 16" fill="none" xmlns="http://www.w3.org/2000/svg">
<path d="M19 1.8C18.3 2.1 17.5 2.3 16.7 2.4C17.5 1.9 18.1 1.1 18.4 0.2C17.6 0.7 16.8 1 15.9 1.2C15.2 0.4 14.2 0 13 0C10.8 0 9.1 1.8 9.1 3.9C9.1 4.2 9.1 4.5 9.2 4.8C5.9 4.6 3 3.1 1.1 0.7C0.8 1.3 0.6 2 0.6 2.7C0.6 4.1 1.3 5.3 2.4 6C1.8 6 1.1 5.8 0.6 5.5C0.6 7.4 2 9 3.8 9.4C3.5 9.5 3.1 9.5 2.8 9.5C2.5 9.5 2.3 9.5 2.1 9.4C2.6 11 4.1 12.1 5.8 12.1C4.5 13.2 2.8 13.8 0.9 13.8C0.6 13.8 0.3 13.8 0 13.7C1.7 14.8 3.8 15.5 6 15.5C13.2 15.5 17.2 9.5 17.2 4.3C17.2 4.1 17.2 4 17.2 3.8C17.8 3.3 18.5 2.6 19 1.8Z" fill="white"/>
</svg>
