<svg width="81" height="60" viewBox="0 0 81 60" fill="none" xmlns="http://www.w3.org/2000/svg">
<g id="Group">
<path id="Vector" d="M6.15741 1.88357H45.6212C48.4728 1.88357 50.7787 4.18944 50.7787 7.04098V31.103C50.7787 33.9545 48.4728 36.2604 45.6212 36.2604H23.3194L16.1202 45.8888C15.1345 47.2089 13.0222 46.5048 13.0222 44.8502V36.2428H6.15741C3.30587 36.2428 1 33.9369 1 31.0854V7.02337C1 4.17184 3.30587 1.86597 6.15741 1.86597V1.88357Z" stroke="#8959C3" stroke-width="2" stroke-linecap="round" stroke-linejoin="round"/>
<path id="Vector_2" d="M29.2515 41.9808V43.3362C29.2515 46.1877 31.5573 48.4936 34.4089 48.4936H56.7107L63.9099 58.1219C64.8957 59.4421 67.0079 58.738 67.0079 57.0834V48.476H73.8727C76.7242 48.476 79.0301 46.1701 79.0301 43.3186V19.2565C79.0301 16.405 76.7242 14.0991 73.8727 14.0991H57.7492" stroke="#8959C3" stroke-width="2" stroke-linecap="round" stroke-linejoin="round"/>
<path id="Vector_3" d="M42.8224 14.0991H34.3911C31.5395 14.0991 29.2336 16.405 29.2336 19.2565V30.3106" stroke="#8959C3" stroke-width="2" stroke-linecap="round" stroke-linejoin="round"/>
</g>
</svg>
