<svg width="68" height="62" viewBox="0 0 68 62" fill="none" xmlns="http://www.w3.org/2000/svg">
<g id="Group">
<path id="Vector" d="M57.9147 35.8036L62.0556 31.6627C69.1784 24.5399 65.617 14.845 59.9216 8.57014C58.0702 6.57745 55.7807 4.72608 53.6467 3.44002C50.6506 1.72998 41.5351 -0.545363 35.5429 5.29138L22.9932 17.6998C19.5731 21.1199 28.1233 24.2573 32.4055 20.1164L35.5429 16.979C40.249 12.6968 46.0999 21.2612 53.364 15.4103" stroke="#FB4E56" stroke-width="2" stroke-linecap="round" stroke-linejoin="round"/>
<path id="Vector_2" d="M9.29887 33.8111L5.15804 29.6702C-8.67773 15.8345 15.2769 -7.82343 29.3954 5.85688L32.2502 8.71166" stroke="#FB4E56" stroke-width="2" stroke-linecap="round" stroke-linejoin="round"/>
<path id="Vector_3" d="M42.2278 19.9751L58.3389 36.7928C61.6176 40.2129 56.7702 46.7704 52.488 42.5024L44.9271 34.8002" stroke="#FB4E56" stroke-width="2" stroke-linecap="round" stroke-linejoin="round"/>
<path id="Vector_4" d="M38.3838 39.9444L46.6513 48.4946C49.9301 51.9147 56.6289 46.9259 52.5022 42.5024L44.376 34.0935" stroke="#FB4E56" stroke-width="2" stroke-linecap="round" stroke-linejoin="round"/>
<path id="Vector_5" d="M35.8113 49.3426L39.9521 53.4834C43.2309 56.9035 49.7884 52.0561 45.6617 47.6326" stroke="#FB4E56" stroke-width="2" stroke-linecap="round" stroke-linejoin="round"/>
<path id="Vector_6" d="M19.135 30.3909L19.559 30.8149C20.9864 32.2423 20.9864 34.8002 19.559 36.2276L13.8494 41.9372C12.422 43.3646 9.86405 43.3646 8.43666 41.9372L8.01268 41.5132C6.58529 40.0858 6.58529 37.5278 8.01268 36.1004L13.7222 30.3909C15.1496 28.8222 17.7076 28.8222 19.135 30.3909ZM28.8299 32.963L29.2539 33.387C30.6813 34.8144 30.6813 37.3724 29.2539 38.7998L20.1243 47.9294C18.6969 49.3568 16.1389 49.3568 14.7115 47.9294L14.2875 47.5054C12.8602 46.078 12.8602 43.52 14.2875 42.0927L23.4172 32.963C24.8445 31.5356 27.2612 31.5356 28.8299 32.963ZM32.5327 41.5132L32.9566 41.9372C34.384 43.3646 34.384 45.9226 32.9566 47.35L26.6818 53.6248C25.2544 55.0522 22.6964 55.0522 21.269 53.6248L20.845 53.2008C19.4177 51.7735 19.4177 49.2155 20.845 47.7881L27.1199 41.5132C28.5473 40.0858 30.9639 40.0858 32.5327 41.5132ZM36.518 49.6394L36.942 50.0634C38.3694 51.4908 38.3694 54.0488 36.942 55.4762L33.098 59.3202C31.6706 60.7476 29.1126 60.7476 27.6852 59.3202L27.2612 58.8963C25.8338 57.4689 25.8338 54.9109 27.2612 53.4835L31.1053 49.6394C32.5327 48.2121 35.0907 48.2121 36.518 49.6394Z" stroke="#FB4E56" stroke-width="2" stroke-linecap="round" stroke-linejoin="round"/>
</g>
</svg>
