<svg width="55" height="76" viewBox="0 0 55 76" fill="none" xmlns="http://www.w3.org/2000/svg">
<g id="Group">
<path id="Vector" d="M26.9261 44.2552C36.6529 44.2552 44.538 36.5192 44.538 26.9765C44.538 17.4337 36.6529 9.69775 26.9261 9.69775C17.1993 9.69775 9.31421 17.4337 9.31421 26.9765C9.31421 36.5192 17.1993 44.2552 26.9261 44.2552Z" stroke="#5A46E1" stroke-width="2" stroke-linecap="round" stroke-linejoin="round"/>
<path id="Vector_2" d="M53.4867 27.2939C53.4867 29.5152 50.9639 31.3875 50.4085 33.4343C49.8532 35.4811 51.0591 38.4164 49.9801 40.2728C48.9012 42.1292 45.7438 42.5258 44.1888 44.0649C42.6339 45.604 42.3007 48.6821 40.365 49.7451C38.4134 50.8082 35.5892 49.6182 33.4472 50.1735C31.3052 50.7447 29.4805 53.2199 27.2433 53.2199C25.0061 53.2199 23.1022 50.713 21.0395 50.1735C18.9768 49.6341 15.9939 50.8241 14.1217 49.7451C12.2494 48.6662 11.8369 45.5722 10.282 44.0649C8.72703 42.5576 5.58544 42.1768 4.50652 40.2728C3.42759 38.3847 4.64931 35.5287 4.07812 33.4343C3.50692 31.324 1 29.5152 1 27.2939C1 25.0726 3.52279 23.2162 4.07812 21.1377C4.63345 19.0592 3.42759 16.1714 4.50652 14.3151C5.58544 12.4587 8.74289 12.0461 10.282 10.5229C11.821 8.99975 12.2177 5.90576 14.1217 4.8427C16.0257 3.77964 18.8975 4.9855 21.0395 4.41431C23.1815 3.84311 25.0061 1.36792 27.2433 1.36792C29.4805 1.36792 31.3845 3.85897 33.4472 4.41431C35.5098 4.96964 38.4927 3.76377 40.365 4.8427C42.2373 5.90576 42.6498 9.03148 44.1888 10.5229C45.7279 12.0144 48.8854 12.4111 49.9801 14.3151C51.0591 16.2032 49.8373 19.0592 50.4085 21.1377C50.9797 23.2321 53.4867 25.0726 53.4867 27.2939Z" stroke="#5A46E1" stroke-width="2" stroke-linecap="round" stroke-linejoin="round"/>
<path id="Vector_3" d="M42.3167 47.4604L53.4867 66.4528L43.6336 65.4849L39.54 74.3543L27.2434 53.4263" stroke="#5A46E1" stroke-width="2" stroke-linecap="round" stroke-linejoin="round"/>
<path id="Vector_4" d="M12.1701 47.4604L1 66.4528L10.8531 65.4849L14.9467 74.3543L27.2433 53.4263" stroke="#5A46E1" stroke-width="2" stroke-linecap="round" stroke-linejoin="round"/>
<path id="Vector_5" d="M17.644 27.2941L23.832 33.3869L36.8426 20.5825" stroke="#5A46E1" stroke-width="2" stroke-linecap="round" stroke-linejoin="round"/>
</g>
</svg>
